HIERARCHY
ROOT Hips
{
	OFFSET 0.000000 0.000000 0.000000
	CHANNELS 6 Xposition Yposition Zposition Xrotation Yrotation Zrotation
	JOINT LeftUpLeg_virtual
	{
		OFFSET 0.000000 0.000000 0.000000
		CHANNELS 3 Xrotation Yrotation Zrotation
		JOINT LeftUpLeg
		{
			OFFSET 13.026900 -6.336304 -1.092800
			CHANNELS 3 Xrotation Yrotation Zrotation
			JOINT LeftLeg
			{
				OFFSET 0.524474 -46.096886 9.782700
				CHANNELS 3 Xrotation Yrotation Zrotation
				JOINT LeftFoot
				{
					OFFSET -0.524474 -53.427422 -12.948200
					CHANNELS 3 Xrotation Yrotation Zrotation
					JOINT LeftToeBase
					{
						OFFSET 0.192200 -14.009700 16.364100
						CHANNELS 3 Xrotation Yrotation Zrotation
						JOINT LeftToe_End
						{
							OFFSET -1.784700 -0.561700 9.474800
							CHANNELS 3 Xrotation Yrotation Zrotation
							End Site
							{
								OFFSET 0 0 0
							}
						}
					}
				}
			}
		}
	}
	JOINT RightUpLeg_virtual
	{
		OFFSET 0.000000 0.000000 0.000000
		CHANNELS 3 Xrotation Yrotation Zrotation
		JOINT RightUpLeg
		{
			OFFSET -12.883000 -6.336304 -1.092800
			CHANNELS 3 Xrotation Yrotation Zrotation
			JOINT RightLeg
			{
				OFFSET -0.524587 -46.096825 9.782800
				CHANNELS 3 Xrotation Yrotation Zrotation
				JOINT RightFoot
				{
					OFFSET 0.524587 -53.427383 -12.948300
					CHANNELS 3 Xrotation Yrotation Zrotation
					JOINT RightToeBase
					{
						OFFSET -0.192200 -14.009700 16.364100
						CHANNELS 3 Xrotation Yrotation Zrotation
						JOINT RightToe_End
						{
							OFFSET 1.784700 -0.561700 9.474800
							CHANNELS 3 Xrotation Yrotation Zrotation
							End Site
							{
								OFFSET 0 0 0
							}
						}
					}
				}
			}
		}
	}
	JOINT Spine_virtual
	{
		OFFSET 0.000000 0.000000 0.000000
		CHANNELS 3 Xrotation Yrotation Zrotation
		JOINT Spine
		{
			OFFSET 0.072000 7.257294 -0.789700
			CHANNELS 3 Xrotation Yrotation Zrotation
			JOINT Spine1
			{
				OFFSET 0.000000 12.508769 -0.658067
				CHANNELS 3 Xrotation Yrotation Zrotation
				JOINT Spine1_split
				{
					OFFSET 0.000000 12.508769 -0.658067
					CHANNELS 3 Xrotation Yrotation Zrotation
					JOINT Spine2
					{
						OFFSET 0.000000 12.508769 -0.658067
						CHANNELS 3 Xrotation Yrotation Zrotation
						JOINT Neck_virtual
						{
							OFFSET 0.000000 0.000000 0.000000
							CHANNELS 3 Xrotation Yrotation Zrotation
							JOINT Neck
							{
								OFFSET 0.000000 14.033295 7.520400
								CHANNELS 3 Xrotation Yrotation Zrotation
								JOINT Head
								{
									OFFSET 0.000000 8.198502 5.703100
									CHANNELS 3 Xrotation Yrotation Zrotation
									JOINT HeadTop_End
									{
										OFFSET 0.000000 17.760803 13.332701
										CHANNELS 3 Xrotation Yrotation Zrotation
										End Site
										{
											OFFSET 0 0 0
										}
									}
								}
							}
						}
						JOINT LeftShoulder_virtual
						{
							OFFSET 0.000000 0.000000 0.000000
							CHANNELS 3 Xrotation Yrotation Zrotation
							JOINT LeftShoulder
							{
								OFFSET 6.292450 5.785301 -0.669000
								CHANNELS 3 Xrotation Yrotation Zrotation
								JOINT LeftShoulder_split
								{
									OFFSET 6.292450 5.785301 -0.669000
									CHANNELS 3 Xrotation Yrotation Zrotation
									JOINT LeftArm
									{
										OFFSET 13.907140 -6.093903 1.965100
										CHANNELS 3 Xrotation Yrotation Zrotation
										JOINT LeftForeArm
										{
											OFFSET 34.140198 0.000000 0.000000
											CHANNELS 3 Xrotation Yrotation Zrotation
											JOINT LeftHand
											{
												OFFSET 40.960209 0.000000 0.000000
												CHANNELS 3 Xrotation Yrotation Zrotation
												End Site
												{
													OFFSET 0 0 0
												}
											}
										}
									}
								}
							}
						}
						JOINT RightShoulder_virtual
						{
							OFFSET 0.000000 0.000000 0.000000
							CHANNELS 3 Xrotation Yrotation Zrotation
							JOINT RightShoulder
							{
								OFFSET -6.292450 5.785301 -0.669000
								CHANNELS 3 Xrotation Yrotation Zrotation
								JOINT RightShoulder_split
								{
									OFFSET -6.292450 5.785301 -0.669000
									CHANNELS 3 Xrotation Yrotation Zrotation
									JOINT RightArm
									{
										OFFSET -13.907140 -6.093903 1.965100
										CHANNELS 3 Xrotation Yrotation Zrotation
										JOINT RightForeArm
										{
											OFFSET -34.140198 0.000000 0.000000
											CHANNELS 3 Xrotation Yrotation Zrotation
											JOINT RightHand
											{
												OFFSET -40.960209 0.000000 0.000000
												CHANNELS 3 Xrotation Yrotation Zrotation
												End Site
												{
													OFFSET 0 0 0
												}
											}
										}
									}
								}
							}
						}
					}
				}
			}
		}
	}
}
MOTION
Frames: 6
Frame Time: 0.03333333
-1.111155 101.148705 0.434563 0.000000 0.000000 0.000000 3.032228 -58.328470 6.707834 -36.056859 9.366516 25.451291 41.733330 -7.555501 -9.726265 -7.259467 -2.461460 -9.583213 -0.327592 1.238396 0.837243 0.000000 0.000000 0.000000 3.032228 -58.328470 6.707834 -33.212567 -7.748740 -26.039837 46.179469 2.592292 -7.371215 -16.830308 3.006020 21.138088 -0.322786 -0.997354 -0.837171 0.000000 0.000000 0.000000 3.032228 -58.328470 6.707834 11.191922 0.157658 -2.923519 8.434584 0.027681 -5.592322 0.000000 0.000000 0.000000 0.000000 0.000000 0.000000 8.457040 0.027894 -5.591861 -21.556289 25.063285 12.062621 -0.293598 25.465686 -3.208709 0.000000 0.000000 0.000000 8.457040 0.027894 -5.591861 -6.221647 -11.503822 -4.023770 0.000000 0.000000 0.000000 -23.061623 9.569256 -36.639826 0.046345 -43.170945 -0.011004 0.000000 0.000000 0.000000 8.457040 0.027894 -5.591861 -5.488235 10.658258 2.466466 0.000000 0.000000 0.000000 -41.473889 -26.755574 30.079036 -155.044256 68.137093 156.691192 0.000000 0.000000 0.000000 
-2.312560 101.524681 0.638756 0.000000 0.000000 0.000000 6.533489 -60.131975 10.982359 -35.137044 9.961863 24.363836 40.815021 -5.603907 -9.213931 -8.018513 -1.775171 -11.010501 -0.366949 1.237935 0.841864 0.000000 0.000000 0.000000 6.533489 -60.131975 10.982359 -34.552855 -6.027087 -26.160728 46.034304 2.834333 -7.279091 -17.134044 3.367735 20.904644 -1.699991 -0.657346 -0.366460 0.000000 0.000000 0.000000 6.533489 -60.131975 10.982359 9.971067 0.056883 -3.554435 5.412852 1.778464 -6.941529 0.000000 0.000000 0.000000 0.000000 0.000000 0.000000 6.233830 0.975660 -6.719546 -17.015543 23.940354 3.257988 -3.784286 21.629759 8.240864 0.000000 0.000000 0.000000 6.233830 0.975660 -6.719546 -6.702464 -14.957884 -4.571852 0.000000 0.000000 0.000000 -18.021917 7.338814 -35.052555 -0.477873 -38.363308 -0.338809 0.000000 0.000000 0.000000 6.233830 0.975660 -6.719546 -5.596363 8.117631 2.079308 0.000000 0.000000 0.000000 -42.075355 -29.071129 25.529891 -158.484253 63.364280 160.638522 0.000000 0.000000 0.000000 
-5.221114 102.410706 0.985947 0.000000 0.000000 0.000000 7.742451 -60.928853 12.878171 -32.262962 10.933718 23.943448 37.996083 -4.465094 -7.992669 -8.070135 -1.514469 -13.676219 -0.327590 1.238492 0.837238 0.000000 0.000000 0.000000 7.742451 -60.928853 12.878171 -35.010744 -3.675653 -25.235351 48.350957 3.679590 -6.491436 -14.533859 4.231105 19.478844 -5.125251 -0.012078 -0.987537 0.000000 0.000000 0.000000 7.742451 -60.928853 12.878171 8.969597 -0.119499 -4.348860 0.891125 1.532509 -9.429975 0.000000 0.000000 0.000000 0.000000 0.000000 0.000000 1.674381 0.804737 -9.252079 -11.960174 23.337933 -5.988321 -2.747562 19.559532 10.071111 0.000000 0.000000 0.000000 1.674381 0.804737 -9.252079 -6.911199 -16.614285 -3.923255 0.000000 0.000000 0.000000 -17.257275 10.437856 -33.348443 0.390007 -39.556962 0.206007 0.000000 0.000000 0.000000 1.674381 0.804737 -9.252079 -5.775046 5.551413 1.625786 0.000000 0.000000 0.000000 -38.882488 -33.575707 26.148172 -161.829748 57.144716 164.636177 0.000000 0.000000 0.000000 
-9.998419 102.717972 0.877789 0.000000 0.000000 0.000000 7.424416 -58.285918 13.220719 -30.007070 12.012774 24.114651 34.710041 -5.487291 -6.940697 -7.983620 -2.992904 -15.960721 -0.327592 1.238559 0.837263 0.000000 0.000000 0.000000 7.424416 -58.285918 13.220719 -38.740433 1.549508 -25.677109 55.982966 8.412387 -5.606314 -0.097403 6.023877 25.469555 -18.743135 2.687633 -9.348013 0.000000 0.000000 0.000000 7.424416 -58.285918 13.220719 8.368986 -0.392503 -5.246948 -1.833099 1.182722 -11.772231 0.000000 0.000000 0.000000 0.000000 0.000000 0.000000 -1.526811 0.087510 -11.605882 -9.909274 22.692731 -8.192026 -1.800624 18.934473 8.662643 0.000000 0.000000 0.000000 -1.526811 0.087510 -11.605882 -6.653876 -14.959619 -0.689953 0.000000 0.000000 0.000000 -19.522830 9.032868 -32.675253 2.656767 -46.553009 1.886259 0.000000 0.000000 0.000000 -1.526811 0.087510 -11.605882 -6.030924 4.173774 0.513730 0.000000 0.000000 0.000000 -40.404865 -38.913927 24.896067 -163.945837 52.732216 167.151873 0.000000 0.000000 0.000000 
-15.993840 102.603279 0.651371 0.000000 0.000000 0.000000 6.241543 -53.374667 12.173437 -28.587125 12.926798 24.787808 32.383245 -9.170075 -6.721067 -8.972436 -4.849299 -16.578049 -0.393135 1.237570 0.835788 0.000000 0.000000 0.000000 6.241543 -53.374667 12.173437 -41.552870 6.358592 -26.071220 63.784152 12.577509 -6.348105 11.586949 8.332352 30.530194 -19.701180 3.893608 -13.480940 0.000000 0.000000 0.000000 6.241543 -53.374667 12.173437 7.977217 -0.662556 -5.689080 -2.751769 -0.097371 -13.141403 0.000000 0.000000 0.000000 0.000000 0.000000 0.000000 -2.781010 -1.300084 -12.982324 -8.353285 22.469731 -7.794722 0.497113 19.763912 5.968755 0.000000 0.000000 0.000000 -2.781010 -1.300084 -12.982324 -6.680646 -11.924381 2.218044 0.000000 0.000000 0.000000 -20.517151 8.633660 -31.762033 -1.226229 -58.081306 -1.084685 0.000000 0.000000 0.000000 -2.781010 -1.300084 -12.982324 -6.323341 3.423926 -0.902430 0.000000 0.000000 0.000000 -45.878005 -42.504568 20.709779 -165.508584 49.265393 168.972214 0.000000 0.000000 0.000000 
-22.726988 101.864334 0.495552 0.000000 0.000000 0.000000 7.495443 -50.930170 13.833471 -26.631140 13.665436 25.331543 29.979575 -11.445094 -6.057554 -10.645064 -4.735914 -18.957986 -0.408801 1.237271 0.838633 0.000000 0.000000 0.000000 7.495443 -50.930170 13.833471 -45.183549 10.416161 -26.838356 68.199596 14.121078 -6.963651 13.352473 8.520039 30.384066 -13.269806 -0.151960 -10.695035 0.000000 0.000000 0.000000 7.495443 -50.930170 13.833471 8.041155 -0.870066 -5.477752 -2.628028 -1.143591 -13.585926 0.000000 0.000000 0.000000 0.000000 0.000000 0.000000 -2.658045 -2.261037 -13.417761 -8.304546 21.270573 -8.890621 -1.623351 18.228938 4.280480 0.000000 0.000000 0.000000 -2.658045 -2.261037 -13.417761 -7.010448 -7.758846 6.082060 0.000000 0.000000 0.000000 -22.464736 11.561102 -32.135675 0.090227 -67.442777 0.038892 0.000000 0.000000 0.000000 -2.658045 -2.261037 -13.417761 -6.606305 4.275088 -2.772682 0.000000 0.000000 0.000000 -55.680672 -40.663156 12.455854 -166.525736 47.451605 170.044663 0.000000 0.000000 0.000000 
